<svg viewBox="0 0 400 280" xmlns="http://www.w3.org/2000/svg">
  <rect x="150" y="14" width="100" height="14" fill="#cfcfcf"/>
  <rect x="14" y="46" width="86" height="60" fill="#cfcfcf"/>
  <rect x="20" y="112" width="74" height="10" fill="#cfcfcf"/>
  <rect x="20" y="128" width="74" height="7" fill="#e2e2e2"/>
  <rect x="20" y="140" width="50" height="7" fill="#e2e2e2"/>
  <rect x="112" y="46" width="86" height="60" fill="#cfcfcf"/>
  <rect x="118" y="112" width="74" height="10" fill="#cfcfcf"/>
  <rect x="118" y="128" width="74" height="7" fill="#e2e2e2"/>
  <rect x="118" y="140" width="50" height="7" fill="#e2e2e2"/>
  <rect x="210" y="46" width="86" height="60" fill="#cfcfcf"/>
  <rect x="216" y="112" width="74" height="10" fill="#cfcfcf"/>
  <rect x="216" y="128" width="74" height="7" fill="#e2e2e2"/>
  <rect x="216" y="140" width="50" height="7" fill="#e2e2e2"/>
  <rect x="308" y="46" width="86" height="60" fill="#cfcfcf"/>
  <rect x="314" y="112" width="74" height="10" fill="#cfcfcf"/>
  <rect x="314" y="128" width="74" height="7" fill="#e2e2e2"/>
  <rect x="314" y="140" width="50" height="7" fill="#e2e2e2"/>
</svg>
