<svg xmlns="http://www.w3.org/2000/svg" viewBox="0 0 400 300">
  <rect x="0" y="0" width="400" height="300" fill="#fff"/>
  <rect x="0" y="0" width="400" height="140" fill="#ddd"/>
  <g fill="#bbb">
    <rect x="16" y="12" width="32" height="5"/>
    <rect x="56" y="12" width="32" height="5"/>
    <rect x="96" y="12" width="32" height="5"/>
    <rect x="136" y="12" width="32" height="5"/>
    <rect x="330" y="12" width="24" height="4"/>
    <rect x="360" y="12" width="24" height="4"/>
  </g>
  <rect x="28" y="34" width="6" height="44" fill="#bbb"/>
  <rect x="318" y="30" width="9" height="92" fill="#999"/>
  <rect x="334" y="30" width="9" height="64" fill="#999"/>
  <rect x="170" y="162" width="60" height="8" fill="#cfcfcf"/>
  <g fill="#e2e2e2">
    <rect x="90" y="184" width="220" height="4"/>
    <rect x="90" y="194" width="220" height="4"/>
    <rect x="120" y="204" width="160" height="4"/>
  </g>
  <rect x="175" y="218" width="50" height="5" fill="#999"/>
  <line x1="60" y1="240" x2="340" y2="240" stroke="#e2e2e2"/>
  <rect x="160" y="252" width="80" height="7" fill="#cfcfcf"/>
  <g fill="#e2e2e2">
    <rect x="120" y="268" width="160" height="4"/>
    <rect x="140" y="277" width="120" height="4"/>
    <rect x="155" y="288" width="90" height="4"/>
  </g>
</svg>
