<svg viewBox="0 0 400 280" xmlns="http://www.w3.org/2000/svg">
  <rect x="60" y="20" width="280" height="18" fill="#bbb"/>
  <rect x="60" y="46" width="218" height="18" fill="#bbb"/>
  <rect x="60" y="84" width="157" height="10" fill="#cfcfcf"/>
  <rect x="60" y="102" width="112" height="7" fill="#e2e2e2"/>
  <rect x="60" y="126" width="280" height="5" fill="#e2e2e2"/>
  <rect x="60" y="136" width="280" height="5" fill="#e2e2e2"/>
  <rect x="60" y="146" width="200" height="5" fill="#e2e2e2"/>
  <rect x="60" y="166" width="280" height="44" fill="#f0f0f0"/>
  <rect x="60" y="166" width="4" height="44" fill="#999"/>
  <rect x="76" y="176" width="240" height="5" fill="#ddd"/>
  <rect x="76" y="188" width="160" height="5" fill="#ddd"/>
  <rect x="60" y="224" width="280" height="5" fill="#e2e2e2"/>
  <rect x="60" y="234" width="200" height="5" fill="#e2e2e2"/>
  <rect x="230" y="252" width="110" height="6" fill="#e2e2e2"/>
  <rect x="200" y="264" width="140" height="12" fill="#bbb"/>
</svg>
