<svg viewBox="0 0 400 280" xmlns="http://www.w3.org/2000/svg">
  <rect x="160" y="10" width="80" height="16" fill="#f08a24"/>
  <rect x="164" y="34" width="72" height="8" fill="#ddd"/>
  <rect x="34" y="60" width="100" height="80" rx="6" fill="#fff" stroke="#eee"/>
  <circle cx="84" cy="82" r="12" fill="#fde3cc"/>
  <rect x="54" y="102" width="60" height="8" fill="#f08a24"/>
  <rect x="44" y="118" width="80" height="6" fill="#e2e2e2"/>
  <rect x="150" y="60" width="100" height="80" rx="6" fill="#fff" stroke="#eee"/>
  <circle cx="200" cy="82" r="12" fill="#fde3cc"/>
  <rect x="170" y="102" width="60" height="8" fill="#f08a24"/>
  <rect x="160" y="118" width="80" height="6" fill="#e2e2e2"/>
  <rect x="266" y="60" width="100" height="80" rx="6" fill="#fff" stroke="#eee"/>
  <circle cx="316" cy="82" r="12" fill="#fde3cc"/>
  <rect x="286" y="102" width="60" height="8" fill="#f08a24"/>
  <rect x="276" y="118" width="80" height="6" fill="#e2e2e2"/>
  <rect x="92" y="156" width="100" height="80" rx="6" fill="#fff" stroke="#eee"/>
  <circle cx="142" cy="178" r="12" fill="#fde3cc"/>
  <rect x="112" y="198" width="60" height="8" fill="#f08a24"/>
  <rect x="102" y="214" width="80" height="6" fill="#e2e2e2"/>
  <rect x="208" y="156" width="100" height="80" rx="6" fill="#fff" stroke="#eee"/>
  <circle cx="258" cy="178" r="12" fill="#fde3cc"/>
  <rect x="228" y="198" width="60" height="8" fill="#f08a24"/>
  <rect x="218" y="214" width="80" height="6" fill="#e2e2e2"/>
</svg>
